<svg width="20" height="20" fill="none" xmlns="http://www.w3.org/2000/svg"><path d="M18.932 11.41A9.045 9.045 0 008.59 1.067a5.467 5.467 0 00-7.5 7.5C1.005 9.042.96 9.52.955 10a9.045 9.045 0 0010.455 8.933 5.468 5.468 0 007.5-7.5l.022-.023zm-4.635 2.7a3.75 3.75 0 01-1.68 1.298 6.751 6.751 0 01-2.61.465A6.309 6.309 0 017 15.25a3.9 3.9 0 01-1.365-1.222 2.693 2.693 0 01-.525-1.5 1.02 1.02 0 01.322-.75 1.17 1.17 0 01.818-.278c.249-.005.49.08.682.24.21.196.371.437.473.705.13.313.296.61.495.885.198.254.455.455.75.585.4.172.833.251 1.267.233a3 3 0 001.755-.465 1.35 1.35 0 00.668-1.148 1.154 1.154 0 00-.353-.877 2.315 2.315 0 00-.937-.525c-.39-.128-.908-.255-1.56-.398-.75-.174-1.48-.42-2.183-.735A3.585 3.585 0 015.89 8.95a2.625 2.625 0 01-.525-1.657 2.737 2.737 0 01.555-1.68c.418-.52.974-.91 1.605-1.125A7.132 7.132 0 0110 4.128a6.472 6.472 0 011.942.262c.495.147.96.38 1.373.69.325.244.595.553.795.908.162.286.25.608.255.937a1.049 1.049 0 01-.323.75 1.071 1.071 0 01-.802.345.938.938 0 01-.668-.21 2.522 2.522 0 01-.487-.652 2.841 2.841 0 00-.788-.983 2.347 2.347 0 00-1.462-.345 2.73 2.73 0 00-1.5.375 1.08 1.08 0 00-.57.9.863.863 0 00.187.563c.15.173.334.313.54.412.22.114.451.204.69.27.24.068.63.165 1.178.293.69.15 1.305.315 1.867.495a5.68 5.68 0 011.425.66 2.7 2.7 0 01.923.982c.223.457.326.963.3 1.47a3.18 3.18 0 01-.578 1.86z" fill="#fff"/></svg>